<svg width="39" height="38" viewBox="0 0 39 38" fill="none" xmlns="http://www.w3.org/2000/svg">
<path d="M17.7454 32.6726L13.7818 29.1288C11.4597 27.0519 9.53131 25.2735 7.99659 23.7937C6.46187 22.3139 5.22742 20.9769 4.29324 19.7827C3.35906 18.5885 2.69847 17.4656 2.31145 16.4142C1.92443 15.3627 1.73093 14.2399 1.73093 13.0457C1.73093 10.7091 2.53832 8.72956 4.15312 7.10696C5.76791 5.48436 7.76304 4.67307 10.1385 4.67307C11.6599 4.67307 13.0678 5.01706 14.3623 5.70504C15.6568 6.39302 16.7845 7.39903 17.7454 8.72307C18.8664 7.32114 20.0542 6.29566 21.3086 5.64662C22.5631 4.99758 23.911 4.67307 25.3523 4.67307C27.5029 4.67307 29.3084 5.38701 30.7687 6.81489C32.229 8.24278 33.1193 9.96922 33.4396 11.9942H31.0774C30.8372 10.5663 30.2167 9.37859 29.2158 8.431C28.2149 7.4834 26.927 7.0096 25.3523 7.0096C23.991 7.0096 22.7232 7.41201 21.5488 8.21682C20.3744 9.02162 19.4269 10.1639 18.7063 11.6437H16.7445C16.0505 10.1899 15.1164 9.05408 13.942 8.23629C12.7676 7.4185 11.4998 7.0096 10.1385 7.0096C8.37693 7.0096 6.93563 7.58725 5.81462 8.74254C4.6936 9.89783 4.1331 11.3322 4.1331 13.0457C4.1331 14.0582 4.33995 15.0447 4.75366 16.0053C5.16737 16.9659 5.88652 18.0571 6.91113 19.279C7.93573 20.501 9.33033 21.9289 11.0949 23.5627C12.8595 25.1965 15.0763 27.2077 17.7454 29.5961C18.5995 28.8433 19.4069 28.1423 20.1676 27.4933C20.9283 26.8442 21.6823 26.2082 22.4296 25.5851L22.6952 25.8372L23.2704 26.3834L23.8456 26.9296L24.1112 27.1817C23.3905 27.8048 22.6432 28.4409 21.8691 29.0899C21.0951 29.7389 20.2677 30.4529 19.3869 31.2317L17.7454 32.6726ZM29.3559 26.4808V21.4183H24.1512V19.0817H29.3559V14.0192H31.7581V19.0817H36.9628V21.4183H31.7581V26.4808H29.3559Z" fill="#D55AA2"/>
</svg>
