<svg width="40" height="38" viewBox="0 0 40 38" fill="none" xmlns="http://www.w3.org/2000/svg">
<path d="M19.5767 13.513V8.72309H14.6122V6.38655H19.5767V1.59665H21.9788V6.38655H26.9033V8.72309H21.9788V13.513H19.5767ZM12.5618 34.2692C11.7668 34.2692 11.089 33.9939 10.5285 33.4432C9.96798 32.8925 9.68772 32.2305 9.68772 31.4571C9.68772 30.6838 9.9708 30.0245 10.537 29.4793C11.1032 28.9342 11.7838 28.6616 12.5788 28.6616C13.3739 28.6616 14.0517 28.9369 14.6122 29.4876C15.1727 30.0383 15.4529 30.7003 15.4529 31.4737C15.4529 32.247 15.1698 32.9063 14.6037 33.4515C14.0375 33.9967 13.3569 34.2692 12.5618 34.2692ZM28.7365 34.2692C27.9414 34.2692 27.2636 33.9939 26.7031 33.4432C26.1426 32.8925 25.8623 32.2305 25.8623 31.4571C25.8623 30.6838 26.1454 30.0245 26.7116 29.4793C27.2778 28.9342 27.9584 28.6616 28.7534 28.6616C29.5485 28.6616 30.2263 28.9369 30.7868 29.4876C31.3473 30.0383 31.6276 30.7003 31.6276 31.4737C31.6276 32.247 31.3445 32.9063 30.7783 33.4515C30.2121 33.9967 29.5315 34.2692 28.7365 34.2692ZM12.5703 26.2082C11.4493 26.2082 10.6286 25.7668 10.1081 24.8842C9.58763 24.0015 9.5943 23.1058 10.1281 22.1971L12.5703 17.8745L6.5649 5.45194H3.44208V3.1154H8.08627L14.8924 17.2904H26.583L32.8286 6.38655L34.9105 7.47694L28.785 18.264C28.5351 18.6967 28.2057 19.032 27.7968 19.27C27.388 19.5079 26.9033 19.6269 26.3428 19.6269H14.3319L11.8497 23.8717H31.6276V26.2082H12.5703Z" fill="#D55AA2"/>
</svg>
