<svg width="27" height="27" viewBox="0 0 27 27" fill="none" xmlns="http://www.w3.org/2000/svg">
<path d="M23.1798 25.3536L23.5333 25.7071L23.8869 25.3536L25.3536 23.8869L25.7085 23.532L25.3522 23.1784L16.8637 14.7543C17.3852 14.0374 17.7888 13.2742 18.0719 12.4652C18.4018 11.5226 18.5667 10.5462 18.5667 9.53833C18.5667 7.04803 17.6871 4.9084 15.9381 3.14763C14.1879 1.38568 12.0487 0.5 9.55 0.5C7.05134 0.5 4.90731 1.38558 3.14645 3.14645C1.38608 4.90682 0.5 7.04508 0.5 9.53333C0.5 12.0214 1.38505 14.1596 3.14356 15.92C4.90432 17.6827 7.06672 18.5667 9.6 18.5667C10.6564 18.5667 11.6594 18.3966 12.6053 18.0533C13.392 17.7679 14.1019 17.3857 14.7319 16.9057L23.1798 25.3536ZM13.8154 13.7984C12.6459 14.9807 11.2394 15.5667 9.56667 15.5667C7.87381 15.5667 6.45101 14.9795 5.26895 13.7966C4.08542 12.6122 3.5 11.2003 3.5 9.53333C3.5 7.86641 4.08542 6.45449 5.26895 5.27009C6.45101 4.08719 7.87381 3.5 9.56667 3.5C11.2394 3.5 12.6459 4.08595 13.8154 5.26828C14.9865 6.45229 15.5667 7.86477 15.5667 9.53333C15.5667 11.2019 14.9865 12.6144 13.8154 13.7984Z" fill="#a13e78" stroke="#a13e78"/>
</svg>
