<svg width="28" height="20" viewBox="0 0 28 20" fill="none" xmlns="http://www.w3.org/2000/svg">
<path d="M27.3333 2.41667V17.5833C27.3333 18.05 27.1333 18.4583 26.7333 18.8083C26.3333 19.1583 25.8667 19.3333 25.3333 19.3333H2.66666C2.13332 19.3333 1.66666 19.1583 1.26666 18.8083C0.866657 18.4583 0.666656 18.05 0.666656 17.5833V2.41667C0.666656 1.95001 0.866657 1.54167 1.26666 1.19167C1.66666 0.841672 2.13332 0.666672 2.66666 0.666672H25.3333C25.8667 0.666672 26.3333 0.841672 26.7333 1.19167C27.1333 1.54167 27.3333 1.95001 27.3333 2.41667ZM2.66666 5.59584H25.3333V2.41667H2.66666V5.59584ZM2.66666 9.35834V17.5833H25.3333V9.35834H2.66666Z" fill="#370C26"/>
</svg>
