<svg width="24" height="28" viewBox="0 0 24 28" fill="none" xmlns="http://www.w3.org/2000/svg">
<path d="M0.075 6.81383C0.226227 6.07757 0.597983 5.42019 1.12938 4.94935C1.66078 4.47851 2.32033 4.22212 3 4.22217H21C21.6797 4.22212 22.3392 4.47851 22.8706 4.94935C23.402 5.42019 23.7738 6.07757 23.925 6.81383L12 14.9122L0.075 6.81383ZM0 8.71717V20.5572L8.7045 14.6272L0 8.71717ZM10.1415 15.6055L0.2865 22.3172C0.52999 22.8876 0.91429 23.3695 1.39467 23.7068C1.87505 24.0441 2.43176 24.2228 3 24.2222H21C21.5681 24.2223 22.1246 24.0432 22.6048 23.7057C23.0849 23.3681 23.4688 22.886 23.712 22.3155L13.857 15.6038L12 16.8655L10.1415 15.6055ZM15.2955 14.6288L24 20.5572V8.71717L15.2955 14.6272V14.6288Z" fill="#A13E78"/>
</svg>
