<svg width="48" height="48" viewBox="0 0 48 48" fill="none" xmlns="http://www.w3.org/2000/svg">
<g clip-path="url(#clip0_91_270)">
<path d="M24 0C17.487 0 16.668 0.03 14.109 0.144C11.55 0.264 9.807 0.666 8.28 1.26C6.67828 1.86246 5.22747 2.80748 4.029 4.029C2.80823 5.22809 1.86332 6.67872 1.26 8.28C0.666 9.804 0.261 11.55 0.144 14.1C0.03 16.665 0 17.481 0 24.003C0 30.519 0.03 31.335 0.144 33.894C0.264 36.45 0.666 38.193 1.26 39.72C1.875 41.298 2.694 42.636 4.029 43.971C5.361 45.306 6.699 46.128 8.277 46.74C9.807 47.334 11.547 47.739 14.103 47.856C16.665 47.97 17.481 48 24 48C30.519 48 31.332 47.97 33.894 47.856C36.447 47.736 38.196 47.334 39.723 46.74C41.3237 46.1372 42.7735 45.1922 43.971 43.971C45.306 42.636 46.125 41.298 46.74 39.72C47.331 38.193 47.736 36.45 47.856 33.894C47.97 31.335 48 30.519 48 24C48 17.481 47.97 16.665 47.856 14.103C47.736 11.55 47.331 9.804 46.74 8.28C46.1368 6.67868 45.1918 5.22803 43.971 4.029C42.7729 2.80703 41.322 1.86194 39.72 1.26C38.19 0.666 36.444 0.261 33.891 0.144C31.329 0.03 30.516 0 23.994 0H24.003H24ZM21.849 4.326H24.003C30.411 4.326 31.17 4.347 33.699 4.464C36.039 4.569 37.311 4.962 38.157 5.289C39.276 5.724 40.077 6.246 40.917 7.086C41.757 7.926 42.276 8.724 42.711 9.846C43.041 10.689 43.431 11.961 43.536 14.301C43.653 16.83 43.677 17.589 43.677 23.994C43.677 30.399 43.653 31.161 43.536 33.69C43.431 36.03 43.038 37.299 42.711 38.145C42.3262 39.1871 41.7121 40.1293 40.914 40.902C40.074 41.742 39.276 42.261 38.154 42.696C37.314 43.026 36.042 43.416 33.699 43.524C31.17 43.638 30.411 43.665 24.003 43.665C17.595 43.665 16.833 43.638 14.304 43.524C11.964 43.416 10.695 43.026 9.849 42.696C8.8065 42.3118 7.86338 41.6987 7.089 40.902C6.29025 40.1281 5.67517 39.185 5.289 38.142C4.962 37.299 4.569 36.027 4.464 33.687C4.35 31.158 4.326 30.399 4.326 23.988C4.326 17.58 4.35 16.824 4.464 14.295C4.572 11.955 4.962 10.683 5.292 9.837C5.727 8.718 6.249 7.917 7.089 7.077C7.929 6.237 8.727 5.718 9.849 5.283C10.695 4.953 11.964 4.563 14.304 4.455C16.518 4.353 17.376 4.323 21.849 4.32V4.326ZM36.813 8.31C36.4348 8.31 36.0603 8.38449 35.7109 8.52923C35.3615 8.67396 35.044 8.8861 34.7765 9.15353C34.5091 9.42097 34.297 9.73845 34.1522 10.0879C34.0075 10.4373 33.933 10.8118 33.933 11.19C33.933 11.5682 34.0075 11.9427 34.1522 12.2921C34.297 12.6415 34.5091 12.959 34.7765 13.2265C35.044 13.4939 35.3615 13.706 35.7109 13.8508C36.0603 13.9955 36.4348 14.07 36.813 14.07C37.5768 14.07 38.3094 13.7666 38.8495 13.2265C39.3896 12.6864 39.693 11.9538 39.693 11.19C39.693 10.4262 39.3896 9.69364 38.8495 9.15353C38.3094 8.61343 37.5768 8.31 36.813 8.31ZM24.003 11.676C22.3682 11.6505 20.7447 11.9505 19.2269 12.5584C17.7092 13.1664 16.3275 14.0702 15.1625 15.2173C13.9974 16.3643 13.0721 17.7317 12.4405 19.2398C11.809 20.7479 11.4837 22.3665 11.4837 24.0015C11.4837 25.6365 11.809 27.2551 12.4405 28.7632C13.0721 30.2713 13.9974 31.6387 15.1625 32.7857C16.3275 33.9328 17.7092 34.8366 19.2269 35.4446C20.7447 36.0525 22.3682 36.3525 24.003 36.327C27.2386 36.2765 30.3246 34.9557 32.5949 32.6498C34.8652 30.3438 36.1377 27.2375 36.1377 24.0015C36.1377 20.7655 34.8652 17.6592 32.5949 15.3532C30.3246 13.0473 27.2386 11.7265 24.003 11.676ZM24.003 15.999C26.125 15.999 28.1601 16.842 29.6606 18.3424C31.161 19.8429 32.004 21.878 32.004 24C32.004 26.122 31.161 28.1571 29.6606 29.6576C28.1601 31.158 26.125 32.001 24.003 32.001C21.881 32.001 19.8459 31.158 18.3454 29.6576C16.845 28.1571 16.002 26.122 16.002 24C16.002 21.878 16.845 19.8429 18.3454 18.3424C19.8459 16.842 21.881 15.999 24.003 15.999Z" fill="#D55AA2"/>
</g>
<defs>
<clipPath id="clip0_91_270">
<rect width="48" height="48" fill="white"/>
</clipPath>
</defs>
</svg>
