<svg width="16" height="16" viewBox="0 0 16 16" fill="none" xmlns="http://www.w3.org/2000/svg">
<path d="M2.84 12.5C3.68 11.9133 4.51333 11.4633 5.34 11.15C6.16667 10.8367 7.05333 10.68 8 10.68C8.94667 10.68 9.83667 10.8367 10.67 11.15C11.5033 11.4633 12.34 11.9133 13.18 12.5C13.7667 11.78 14.1833 11.0533 14.43 10.32C14.6767 9.58667 14.8 8.81333 14.8 8C14.8 6.06667 14.15 4.45 12.85 3.15C11.55 1.85 9.93333 1.2 8 1.2C6.06667 1.2 4.45 1.85 3.15 3.15C1.85 4.45 1.2 6.06667 1.2 8C1.2 8.81333 1.32667 9.58667 1.58 10.32C1.83333 11.0533 2.25333 11.78 2.84 12.5ZM7.99628 8.6C7.22543 8.6 6.57667 8.33543 6.05 7.80628C5.52333 7.27713 5.26 6.62713 5.26 5.85628C5.26 5.08543 5.52457 4.43667 6.05372 3.91C6.58287 3.38333 7.23287 3.12 8.00372 3.12C8.77457 3.12 9.42333 3.38457 9.95 3.91372C10.4767 4.44287 10.74 5.09287 10.74 5.86372C10.74 6.63457 10.4754 7.28333 9.94628 7.81C9.41713 8.33667 8.76713 8.6 7.99628 8.6ZM8.00936 16C6.90979 16 5.87333 15.79 4.9 15.37C3.92667 14.95 3.07667 14.3767 2.35 13.65C1.62333 12.9233 1.05 12.0749 0.63 11.1047C0.21 10.1345 0 9.0978 0 7.99468C0 6.89156 0.21 5.85667 0.63 4.89C1.05 3.92333 1.62333 3.07667 2.35 2.35C3.07667 1.62333 3.92511 1.05 4.89532 0.63C5.86553 0.21 6.9022 0 8.00532 0C9.10844 0 10.1433 0.21 11.11 0.63C12.0767 1.05 12.9233 1.62333 13.65 2.35C14.3767 3.07667 14.95 3.92355 15.37 4.89064C15.79 5.85773 16 6.89107 16 7.99064C16 9.09021 15.79 10.1267 15.37 11.1C14.95 12.0733 14.3767 12.9233 13.65 13.65C12.9233 14.3767 12.0765 14.95 11.1094 15.37C10.1423 15.79 9.10893 16 8.00936 16ZM8 14.8C8.73333 14.8 9.45 14.6933 10.15 14.48C10.85 14.2667 11.54 13.8933 12.22 13.36C11.54 12.88 10.8467 12.5133 10.14 12.26C9.43333 12.0067 8.72 11.88 8 11.88C7.28 11.88 6.56667 12.0067 5.86 12.26C5.15333 12.5133 4.46 12.88 3.78 13.36C4.46 13.8933 5.15 14.2667 5.85 14.48C6.55 14.6933 7.26667 14.8 8 14.8ZM8 7.4C8.45333 7.4 8.82333 7.25667 9.11 6.97C9.39667 6.68333 9.54 6.31333 9.54 5.86C9.54 5.40667 9.39667 5.03667 9.11 4.75C8.82333 4.46333 8.45333 4.32 8 4.32C7.54667 4.32 7.17667 4.46333 6.89 4.75C6.60333 5.03667 6.46 5.40667 6.46 5.86C6.46 6.31333 6.60333 6.68333 6.89 6.97C7.17667 7.25667 7.54667 7.4 8 7.4Z" fill="#404040"/>
</svg>
