<svg width="20" height="20" viewBox="0 0 20 26" fill="none" xmlns="http://www.w3.org/2000/svg">
<path d="M2.12498 25.0556C1.64373 25.0556 1.23175 24.8842 0.889041 24.5415C0.546333 24.1988 0.374979 23.7868 0.374979 23.3056V10.6472C0.374979 10.166 0.546333 9.75399 0.889041 9.41129C1.23175 9.06858 1.64373 8.89722 2.12498 8.89722H4.16665V6.09722C4.16665 4.56403 4.70726 3.25712 5.78849 2.17649C6.86971 1.09587 8.17735 0.555557 9.7114 0.555557C11.2455 0.555557 12.5521 1.09587 13.6312 2.17649C14.7104 3.25712 15.25 4.56403 15.25 6.09722V8.89722H17.2916C17.7729 8.89722 18.1849 9.06858 18.5276 9.41129C18.8703 9.75399 19.0416 10.166 19.0416 10.6472V23.3056C19.0416 23.7868 18.8703 24.1988 18.5276 24.5415C18.1849 24.8842 17.7729 25.0556 17.2916 25.0556H2.12498ZM2.12498 23.3056H17.2916V10.6472H2.12498V23.3056ZM9.71321 19.2222C10.3322 19.2222 10.8604 19.008 11.2979 18.5797C11.7354 18.1513 11.9541 17.6363 11.9541 17.0347C11.9541 16.4514 11.7338 15.9215 11.293 15.4451C10.8522 14.9688 10.3224 14.7306 9.70341 14.7306C9.08446 14.7306 8.55623 14.9688 8.11873 15.4451C7.68123 15.9215 7.46248 16.4563 7.46248 17.0493C7.46248 17.6424 7.68286 18.1528 8.12363 18.5806C8.56439 19.0083 9.09426 19.2222 9.71321 19.2222ZM5.91665 8.89722H13.5V6.09722C13.5 5.04398 13.1317 4.14873 12.3951 3.41147C11.6585 2.6742 10.764 2.30556 9.71175 2.30556C8.65946 2.30556 7.76387 2.6742 7.02498 3.41147C6.28609 4.14873 5.91665 5.04398 5.91665 6.09722V8.89722Z" fill="#370C26"/>
</svg>
