<svg width="29" height="20" viewBox="0 0 29 20" fill="none" xmlns="http://www.w3.org/2000/svg">
<path d="M5.94158 19.3042C4.88475 19.3042 3.98518 18.9696 3.24287 18.3003C2.50056 17.6311 2.1294 16.8185 2.1294 15.8625H-0.000701904V2.41667C-0.000701904 1.95001 0.192944 1.54167 0.580236 1.19167C0.967528 0.841672 1.41937 0.666672 1.93576 0.666672H20.6226V5.5375H24.0114L28.4007 10.8167V15.8625H26.1092C26.1092 16.8185 25.7393 17.6311 24.9996 18.3003C24.2598 18.9696 23.3615 19.3042 22.3047 19.3042C21.2478 19.3042 20.3483 18.9696 19.606 18.3003C18.8636 17.6311 18.4925 16.8185 18.4925 15.8625H9.74615C9.74615 16.8153 9.37626 17.6271 8.63649 18.2979C7.8967 18.9688 6.9984 19.3042 5.94158 19.3042ZM5.93778 17.5542C6.45416 17.5542 6.89525 17.3889 7.26102 17.0583C7.6268 16.7278 7.80969 16.3292 7.80969 15.8625C7.80969 15.3958 7.6268 14.9972 7.26102 14.6667C6.89525 14.3361 6.45416 14.1708 5.93778 14.1708C5.42139 14.1708 4.9803 14.3361 4.61453 14.6667C4.24875 14.9972 4.06586 15.3958 4.06586 15.8625C4.06586 16.3292 4.24875 16.7278 4.61453 17.0583C4.9803 17.3889 5.42139 17.5542 5.93778 17.5542ZM1.93576 14.1125H2.64579C3.01157 13.5875 3.47461 13.1694 4.03491 12.8583C4.59522 12.5472 5.21919 12.3917 5.90682 12.3917C6.59446 12.3917 7.22337 12.5521 7.79355 12.8729C8.36373 13.1938 8.83171 13.6069 9.19748 14.1125H18.6861V2.41667H1.93576V14.1125ZM22.3009 17.5542C22.8173 17.5542 23.2583 17.3889 23.6241 17.0583C23.9899 16.7278 24.1728 16.3292 24.1728 15.8625C24.1728 15.3958 23.9899 14.9972 23.6241 14.6667C23.2583 14.3361 22.8173 14.1708 22.3009 14.1708C21.7845 14.1708 21.3434 14.3361 20.9776 14.6667C20.6118 14.9972 20.4289 15.3958 20.4289 15.8625C20.4289 16.3292 20.6118 16.7278 20.9776 17.0583C21.3434 17.3889 21.7845 17.5542 22.3009 17.5542ZM20.6226 11.6042H26.6256L23.0432 7.2875H20.6226V11.6042Z" fill="#370C26"/>
</svg>
