<svg width="24" height="27" viewBox="0 0 24 27" fill="none" xmlns="http://www.w3.org/2000/svg">
<g clip-path="url(#clip0_91_318)">
<path d="M20.4015 3.87675C19.3012 2.64288 17.9909 1.66466 16.547 0.999091C15.103 0.333525 13.5543 -0.00607379 11.991 8.22175e-05C5.4405 8.22175e-05 0.102 5.93008 0.096 13.2101C0.096 15.5417 0.645 17.8101 1.6815 19.8184L0 26.6667L6.306 24.8301C8.05051 25.8849 10.0049 26.4379 11.991 26.4384H11.997C18.549 26.4384 23.886 20.5084 23.892 13.2217C23.8935 11.4852 23.5857 9.76539 22.9864 8.16155C22.3871 6.5577 21.5096 5.10147 20.4015 3.87675ZM11.991 24.2017C10.2195 24.2024 8.48055 23.6727 6.957 22.6684L6.597 22.4284L2.856 23.5184L3.855 19.4634L3.621 19.0451C2.63071 17.2956 2.10697 15.2701 2.1105 13.2034C2.1105 7.16008 6.546 2.23008 11.997 2.23008C13.2956 2.22749 14.5818 2.51054 15.7815 3.0629C16.9812 3.61526 18.0706 4.42602 18.987 5.44842C19.9065 6.46683 20.6355 7.67746 21.1319 9.01047C21.6282 10.3435 21.8822 11.7725 21.879 13.2151C21.873 19.2801 17.4375 24.2017 11.991 24.2017ZM17.4135 15.9784C17.118 15.8134 15.6585 15.0151 15.384 14.9017C15.111 14.7934 14.9115 14.7367 14.7165 15.0667C14.517 15.3951 13.947 16.1434 13.776 16.3584C13.605 16.5801 13.428 16.6051 13.131 16.4417C12.8355 16.2751 11.877 15.9284 10.743 14.8001C9.858 13.9251 9.2655 12.8417 9.0885 12.5134C8.9175 12.1834 9.072 12.0067 9.2205 11.8417C9.351 11.6951 9.516 11.4551 9.6645 11.2651C9.8145 11.0751 9.864 10.9351 9.9615 10.7151C10.059 10.4917 10.0125 10.3017 9.939 10.1367C9.864 9.97175 9.2715 8.34341 9.021 7.68675C8.781 7.03842 8.5365 7.12841 8.3535 7.12008C8.1825 7.10841 7.983 7.10841 7.7835 7.10841C7.63285 7.11258 7.48459 7.15129 7.34804 7.22213C7.21149 7.29298 7.08959 7.39441 6.99 7.52008C6.717 7.85008 5.9535 8.64841 5.9535 10.2767C5.9535 11.9051 7.0185 13.4701 7.1685 13.6917C7.3155 13.9134 9.2595 17.2451 12.243 18.6784C12.948 19.0201 13.503 19.2217 13.9365 19.3751C14.649 19.6284 15.2925 19.5901 15.8055 19.5084C16.3755 19.4117 17.562 18.7084 17.8125 17.9367C18.0585 17.1634 18.0585 16.5034 17.9835 16.3651C17.91 16.2251 17.7105 16.1434 17.4135 15.9784Z" fill="#A13E78"/>
</g>
<defs>
<clipPath id="clip0_91_318">
<rect width="24" height="26.6667" fill="white"/>
</clipPath>
</defs>
</svg>
